<svg version="1.1" id="Layer_1" xmlns="http://www.w3.org/2000/svg" xmlns:xlink="http://www.w3.org/1999/xlink" x="0px" y="0px"
	 width="100%" viewBox="0 0 160 152" enable-background="new 0 0 160 152" xml:space="preserve">
<path fill="#FFFEFE" opacity="1.000000" stroke="none" 
	d="
M93.000000,153.000000 
	C63.166672,153.000000 33.833073,152.944168 4.500419,153.085022 
	C1.515974,153.099350 0.909483,152.482849 0.916746,149.499817 
	C1.034416,101.166771 1.034409,52.833275 0.916756,4.500231 
	C0.909495,1.517314 1.517183,0.910129 4.500159,0.916899 
	C55.499893,1.032654 106.500038,1.032645 157.499771,0.916917 
	C160.482529,0.910148 161.090546,1.517023 161.083267,4.500154 
	C160.965591,52.833199 160.965591,101.166695 161.083237,149.499741 
	C161.090515,152.482559 160.485764,153.109100 157.499405,153.086441 
	C136.167282,152.924530 114.833351,153.000000 93.000000,153.000000 
z"/>
<path fill="#E65F30" opacity="1.000000" stroke="none" 
	d="
M58.727821,22.727839 
	C64.039062,17.406450 69.060188,12.294177 74.173622,7.275965 
	C78.848778,2.687880 83.041801,2.606747 87.636177,7.187150 
	C108.640602,28.127701 129.607101,49.106445 150.533386,70.125076 
	C154.605515,74.215172 154.740356,78.868271 150.724579,82.904526 
	C129.688065,104.048271 108.586380,125.127525 87.428505,146.149841 
	C83.109604,150.441071 78.716881,150.364502 74.306206,145.985260 
	C53.495853,125.323242 32.718639,104.627304 12.034817,83.838791 
	C6.739023,78.516182 6.929374,74.587013 12.194918,69.305832 
	C27.607170,53.847828 43.048191,38.418507 58.727821,22.727839 
z"/>
<path fill="#FEFAF9" opacity="1.000000" stroke="none" 
	d="
M124.797684,63.192184 
	C128.571350,66.966179 131.940170,70.665817 135.672745,73.952362 
	C138.094193,76.084450 137.948914,77.533363 135.544281,79.297096 
	C133.672012,80.670349 132.608109,84.085243 129.327377,80.666580 
	C126.054169,77.255753 123.077881,71.272820 118.941170,71.583702 
	C115.374756,71.851730 112.058884,77.237434 108.909050,80.618439 
	C106.911217,82.762909 105.680885,82.469086 103.814514,80.503502 
	C99.241188,75.687042 94.637398,70.870491 89.700333,66.438904 
	C86.559860,63.619976 88.889015,62.389076 90.542084,60.589001 
	C92.367226,58.601532 93.787933,57.075100 96.358658,60.036587 
	C99.387268,63.525566 102.915306,68.964203 106.334175,69.045570 
	C109.602875,69.123352 113.142174,63.537605 116.324394,60.213284 
	C121.177681,55.143250 121.855797,61.923523 124.797684,63.192184 
z"/>
<path fill="#FEFCFA" opacity="1.000000" stroke="none" 
	d="
M76.696136,61.702377 
	C74.796143,63.600338 72.945755,65.094086 71.543343,66.930023 
	C69.227913,69.961205 67.588860,69.568909 64.960167,66.994987 
	C62.231312,64.322983 62.277428,62.735126 65.108498,60.401974 
	C67.666466,58.293892 69.740608,55.605900 72.250076,53.429573 
	C74.346649,51.611328 74.124557,50.239567 72.113548,48.700943 
	C71.589203,48.299767 71.139160,47.791092 70.697380,47.294106 
	C67.963524,44.218628 62.526695,41.655193 62.822552,38.338280 
	C63.110466,35.110458 67.988960,32.276955 70.884315,29.301935 
	C72.974648,27.154083 75.115524,25.055336 77.238632,22.939482 
	C80.478424,19.710747 84.937912,20.725330 86.518379,24.977179 
	C87.112930,26.576662 85.735413,26.998379 85.044456,27.725779 
	C82.407570,30.501772 79.780762,33.310867 76.908409,35.832146 
	C74.666924,37.799660 75.018013,39.128876 77.047203,40.940918 
	C79.775421,43.377171 82.134834,46.230282 84.892761,48.628197 
	C87.148163,50.589191 86.798805,51.906239 84.754379,53.720833 
	C82.019302,56.148434 79.537552,58.861450 76.696136,61.702377 
z"/>
<path fill="#FFFDFC" opacity="1.000000" stroke="none" 
	d="
M57.854469,47.263775 
	C61.564182,49.904152 61.348045,51.986198 58.194965,54.788021 
	C55.146404,57.496975 50.149826,60.136303 50.244255,63.775414 
	C50.338001,67.388329 55.425381,69.836472 58.270836,72.842484 
	C61.419941,76.169281 60.423679,80.606506 56.151600,82.078499 
	C55.120911,82.433624 54.594643,81.913780 54.019360,81.377708 
	C52.923386,80.356438 51.883362,79.274979 50.823536,78.215080 
	C42.714458,70.105392 42.714771,70.105186 34.779297,78.036888 
	C34.072292,78.743546 33.249516,79.366989 32.675777,80.168800 
	C30.039867,83.852531 28.424133,81.065407 26.484690,79.345535 
	C24.504654,77.589676 23.554493,76.384567 26.099857,73.940521 
	C35.231415,65.172455 44.113209,56.142204 52.998112,47.121136 
	C54.689148,45.404182 56.008202,44.665619 57.854469,47.263775 
z"/>
<path fill="#FEFCFB" opacity="1.000000" stroke="none" 
	d="
M68.575470,82.601212 
	C72.112801,79.064896 75.537781,75.907112 78.641884,72.460342 
	C81.672577,69.095108 82.768265,72.519371 84.409653,73.865265 
	C86.054756,75.214195 87.849495,76.505989 85.121620,78.800575 
	C82.339066,81.141159 80.034149,84.043671 77.297142,86.446159 
	C75.082008,88.390549 74.658234,89.815536 77.185387,91.885773 
	C79.611618,93.873329 81.548302,96.453773 83.949493,98.477844 
	C86.741074,100.830994 87.109497,102.404099 84.257118,105.423378 
	C81.031227,108.838028 79.541527,107.100967 77.317467,104.768074 
	C73.426910,100.687111 69.575554,96.523964 65.306763,92.862823 
	C61.998730,90.025673 62.261520,88.024078 65.490044,85.644226 
	C66.546165,84.865723 67.384659,83.791977 68.575470,82.601212 
z"/>
<path fill="#FFFDFD" opacity="1.000000" stroke="none" 
	d="
M124.058044,87.907097 
	C125.775757,89.742363 124.246086,90.534531 123.392624,91.397057 
	C118.478058,96.363815 113.444603,101.215851 108.626350,106.273407 
	C106.910683,108.074287 105.915688,107.868317 104.306808,106.194344 
	C99.465881,101.157562 94.578476,96.152603 89.473541,91.387703 
	C86.811729,88.903183 88.783348,87.687454 90.349136,86.312103 
	C91.843262,84.999702 92.822906,82.069878 95.726479,85.019920 
	C99.190804,88.539711 102.324707,94.731529 106.505646,94.540298 
	C110.126015,94.374718 113.508560,88.565094 116.957413,85.210297 
	C120.930084,81.345970 121.575600,86.697304 124.058044,87.907097 
z"/>
<path fill="#FFFEFE" opacity="1.000000" stroke="none" 
	d="
M91.909561,122.902824 
	C87.933952,126.366287 85.062073,132.762604 80.829987,132.486191 
	C77.164848,132.246826 73.846748,126.524307 70.398880,123.200867 
	C68.726723,121.589043 67.261314,119.721611 65.432671,118.322266 
	C62.152416,115.812096 62.131931,113.824974 65.355797,111.075829 
	C67.515770,109.233902 68.619057,108.613297 70.912201,110.942322 
	C74.227394,114.309364 77.152794,120.364380 81.298706,119.990845 
	C84.883575,119.667862 88.203735,114.295029 91.253014,110.814613 
	C93.644806,108.084641 95.047935,109.354164 96.715263,111.319374 
	C98.166145,113.029472 101.168091,114.300491 97.823318,117.058853 
	C95.784592,118.740150 94.037941,120.775627 91.909561,122.902824 
z"/>
<path fill="#FEF9F7" opacity="1.000000" stroke="none" 
	d="
M110.368240,48.756332 
	C114.388977,53.078754 109.111252,53.715069 107.909744,55.796963 
	C106.568344,58.121246 105.189133,56.379467 104.023903,55.216175 
	C99.194191,50.394470 94.506149,45.419430 89.492134,40.797920 
	C86.302254,37.857742 89.114723,36.666027 90.637848,34.958473 
	C92.244965,33.156742 93.557991,31.563629 96.058693,34.311256 
	C100.535126,39.229702 105.401749,43.793018 110.368240,48.756332 
z"/>
<path fill="#FFFEFE" opacity="1.000000" stroke="none" 
	d="
M39.055099,91.865631 
	C34.699081,88.273788 39.195297,87.106636 40.467678,85.180428 
	C41.990986,82.874359 43.442886,83.521095 45.117622,85.250763 
	C49.849365,90.137703 54.579601,95.040703 59.567364,99.659943 
	C62.806644,102.659866 59.712879,103.764465 58.323109,105.487083 
	C56.687763,107.514114 55.347595,108.566734 52.963589,105.913414 
	C48.644581,101.106476 43.883434,96.696793 39.055099,91.865631 
z"/>
</svg>