<svg version="1.1" id="Layer_1" xmlns="http://www.w3.org/2000/svg" xmlns:xlink="http://www.w3.org/1999/xlink" x="0px" y="0px"
	 width="100%" viewBox="0 0 130 109" enable-background="new 0 0 130 109" xml:space="preserve">
<path fill="#FBFCFC" opacity="1.000000" stroke="none" 
	d="
M131.000000,46.000000 
	C131.000000,67.666664 131.000000,88.833328 131.000000,110.000000 
	C88.833344,110.000000 46.666569,109.960693 4.500267,110.083687 
	C1.517027,110.092377 0.903892,109.483688 0.915556,106.499695 
	C1.048451,72.500221 1.048440,38.499840 0.915570,4.500366 
	C0.903909,1.516542 1.516741,0.907183 4.500217,0.916221 
	C45.499836,1.040412 86.500076,1.040400 127.499695,0.916240 
	C130.482925,0.907206 131.132462,1.510767 131.088409,4.501250 
	C130.887131,18.164968 131.000000,31.833317 131.000000,46.000000 
z"/>
<path fill="#496077" opacity="1.000000" stroke="none" 
	d="
M61.581902,55.012253 
	C64.051430,60.604580 67.369759,65.074341 72.165390,68.411842 
	C72.918098,68.935684 73.955780,69.139229 73.950172,70.504921 
	C73.935257,74.135880 74.003075,74.136162 77.493469,73.678543 
	C78.237640,75.135742 76.831688,75.952339 76.194687,76.480843 
	C71.391487,80.465881 75.399460,85.043694 75.226189,89.292366 
	C74.975990,95.427208 69.232231,99.306877 63.677242,96.481110 
	C48.960819,88.995026 33.582008,87.623779 17.572935,90.795975 
	C11.076896,92.083153 8.954278,90.272461 8.950501,83.740883 
	C8.937980,62.087463 9.041648,40.433262 8.867339,18.781240 
	C8.831182,14.289884 10.548519,12.004729 14.790275,11.047048 
	C31.912399,7.181302 48.499882,8.046961 64.197929,16.573929 
	C66.118027,17.616905 67.464485,17.969259 69.580688,16.792252 
	C85.540001,7.915820 102.478867,7.160315 119.912399,11.171844 
	C123.412300,11.977183 125.190651,13.841650 125.164597,17.813585 
	C125.018204,40.132313 125.112976,62.452518 125.079735,84.772156 
	C125.071968,89.989235 123.065933,91.888626 118.044357,91.056206 
	C111.960144,90.047646 105.878746,89.130318 99.708130,89.205750 
	C97.407333,89.233871 96.821236,88.268089 96.976501,86.224197 
	C97.089729,84.733757 97.183350,83.199318 96.959198,81.734451 
	C96.463829,78.497101 97.917168,77.885162 100.864159,77.915215 
	C105.548988,77.962990 110.158318,78.448502 114.774437,79.110184 
	C116.049828,79.293007 117.695961,79.609901 117.851875,77.666191 
	C117.971725,76.171959 116.587738,75.920982 115.420258,75.710381 
	C109.516251,74.645386 103.589508,73.839996 97.566826,74.316154 
	C96.267944,74.418839 94.748909,74.982040 94.254814,73.166832 
	C93.777679,71.413910 95.315491,71.008026 96.461716,70.362885 
	C101.357224,67.607498 106.528114,69.132629 111.609077,69.382469 
	C112.760841,69.439102 113.891495,69.840981 115.043747,69.995033 
	C116.227242,70.153252 117.534294,70.217590 117.833961,68.683907 
	C118.139908,67.118126 116.855904,66.667244 115.709900,66.479691 
	C112.273941,65.917397 108.817589,65.479706 105.254639,64.977226 
	C106.682098,60.466972 109.400383,59.290752 113.641708,60.682430 
	C115.031624,61.138493 117.384705,61.965900 117.837692,59.624161 
	C118.291458,57.278446 115.847992,57.545643 114.367058,57.071468 
	C112.882484,56.596134 110.387291,57.649033 110.757492,54.404621 
	C111.086128,51.524559 112.685089,51.427917 114.935471,51.872444 
	C116.225250,52.127216 117.804062,52.258472 117.922600,50.300507 
	C118.016441,48.750496 116.555077,48.297726 115.517822,48.311199 
	C112.402733,48.351654 111.661705,46.622509 111.492302,43.955948 
	C111.257515,40.260223 109.654434,36.943626 107.794601,33.235294 
	C110.517471,32.605659 112.833359,33.111771 115.168770,33.674675 
	C116.428909,33.978397 117.652794,33.659241 117.920616,32.276363 
	C118.203896,30.813753 117.040855,30.250217 115.800568,30.064543 
	C113.007370,29.646387 110.208801,29.007172 107.405998,28.972195 
	C103.499641,28.923443 101.160294,26.791618 98.691277,23.666292 
	C104.105782,22.252674 108.962509,23.694407 113.838890,24.071722 
	C115.362938,24.189648 117.537819,25.294176 117.903732,22.819374 
	C118.220055,20.680080 115.973167,20.909910 114.634285,20.679213 
	C101.589378,18.431513 88.765869,19.362799 76.302643,23.865000 
	C69.832138,26.202396 65.812599,31.271812 62.359261,37.074669 
	C48.658138,29.391088 34.357079,29.622728 19.836731,31.663383 
	C34.082855,29.753468 47.853340,32.016830 61.710976,36.741802 
	C61.827740,43.714272 61.633411,43.804428 55.701794,41.704945 
	C44.040546,37.577461 32.089241,36.917603 19.939880,38.953114 
	C18.328365,39.223106 16.014090,39.196510 16.341944,41.360542 
	C16.672241,43.540684 18.809494,42.820934 20.463594,42.552277 
	C32.972141,40.520683 45.150772,41.489540 57.128967,45.945297 
	C60.520817,47.207031 61.379604,48.992226 60.928410,52.502991 
	C58.392399,53.760151 56.315392,52.361446 54.157516,51.680443 
	C43.022953,48.166508 31.741735,47.409939 20.227942,49.899982 
	C34.342896,48.077465 47.937290,50.306816 61.581902,55.012253 
z"/>
<path fill="#52687E" opacity="1.000000" stroke="none" 
	d="
M68.702774,60.234573 
	C63.120857,51.759697 62.726284,43.341152 68.053619,35.124794 
	C73.029915,27.449863 80.470795,24.033989 89.511871,25.451033 
	C98.701225,26.891315 104.824905,32.355633 107.414268,41.426048 
	C110.396210,51.871689 105.026596,62.832672 94.821220,67.316261 
	C90.926521,69.027344 89.012817,73.561760 91.616470,76.655472 
	C93.651611,79.073662 93.588539,81.436531 93.609619,84.043022 
	C93.652733,89.374130 93.509911,94.708969 93.658424,100.036278 
	C93.770088,104.041519 92.153908,105.715141 88.061462,105.761818 
	C79.347221,105.861229 78.972694,105.647537 78.972176,97.130997 
	C78.971924,92.965790 78.930000,88.800018 78.986519,84.635582 
	C79.026093,81.719330 78.748428,79.006393 81.211983,76.351395 
	C83.625969,73.749809 81.675186,69.109993 78.345490,67.672211 
	C74.616974,66.062218 71.317757,63.888557 68.702774,60.234573 
z"/>
<path fill="#F1F2F4" opacity="1.000000" stroke="none" 
	d="
M61.921310,54.864204 
	C60.214752,56.548954 58.581585,55.915451 56.806641,55.213406 
	C45.413349,50.707012 33.636089,49.870514 21.601566,51.725777 
	C20.945229,51.826958 20.287710,51.928852 19.627066,51.991932 
	C18.277166,52.120815 16.623325,52.275928 16.339649,50.620960 
	C15.990178,48.582138 17.868553,48.367695 19.308075,48.097019 
	C26.374743,46.768276 33.515862,46.540974 40.632000,47.341011 
	C47.398548,48.101749 54.017269,49.657570 60.543812,52.746555 
	C61.207607,53.447697 61.564411,53.984898 61.921310,54.864204 
z"/>
<path fill="#7C8D9E" opacity="1.000000" stroke="none" 
	d="
M97.703690,23.345303 
	C97.521576,23.583525 96.842896,23.720703 96.827858,23.668119 
	C96.638618,23.006266 97.212929,23.250443 97.703690,23.345303 
z"/>
<path fill="#EEF0F3" opacity="1.000000" stroke="none" 
	d="
M31.131842,74.376648 
	C40.781361,74.370567 49.759491,75.609673 58.298267,79.179810 
	C59.676868,79.756203 62.128548,80.019188 61.264011,82.298531 
	C60.395123,84.589340 58.400162,83.196548 56.996952,82.642822 
	C45.285370,78.021370 33.237019,77.080780 20.867222,79.027657 
	C19.260696,79.280510 16.731743,80.610901 16.290272,77.959114 
	C15.859625,75.372345 18.747635,75.656197 20.299076,75.393845 
	C23.717321,74.815796 27.211718,74.688072 31.131842,74.376648 
z"/>
<path fill="#EEF0F3" opacity="1.000000" stroke="none" 
	d="
M19.255030,61.052780 
	C17.646069,61.092308 16.254282,61.140499 16.213348,59.558296 
	C16.169125,57.848946 17.706251,57.475636 19.004829,57.271088 
	C24.751152,56.365952 30.522585,55.719124 36.358696,56.120777 
	C44.018921,56.647968 51.498592,58.006046 58.619953,60.991825 
	C59.978374,61.561378 61.841038,62.047054 61.128773,63.991119 
	C60.376629,66.044029 58.673088,64.992783 57.353512,64.467415 
	C45.133247,59.602192 32.547100,58.806316 19.255030,61.052780 
z"/>
<path fill="#EFF1F3" opacity="1.000000" stroke="none" 
	d="
M38.199631,19.809433 
	C45.646053,20.285835 52.404163,21.785709 58.848454,24.584385 
	C60.130974,25.141367 62.121761,25.412228 61.265533,27.528482 
	C60.414455,29.631990 58.770901,28.518120 57.466312,27.987099 
	C45.459957,23.100006 33.052925,22.250479 20.367514,24.284824 
	C18.709145,24.550776 16.630064,25.291435 16.327744,23.027225 
	C16.023268,20.746861 18.463167,20.942215 19.963303,20.658842 
	C25.845482,19.547705 31.774313,19.104242 38.199631,19.809433 
z"/>
<path fill="#EEF0F3" opacity="1.000000" stroke="none" 
	d="
M62.035526,36.905544 
	C60.386654,37.987839 58.794373,37.751400 56.974964,36.999321 
	C45.306667,32.176075 33.176514,31.598259 20.831150,33.356647 
	C19.096632,33.603695 16.756487,34.749317 16.314600,32.176094 
	C15.942271,30.007929 18.361996,30.048719 19.944082,29.795340 
	C32.964931,27.709974 45.721680,28.521477 58.093506,33.364403 
	C59.605995,33.956467 61.358849,34.320892 61.852314,36.666214 
	C62.004616,36.978718 62.008041,36.918251 62.035526,36.905544 
z"/>
<path fill="#EEF1F3" opacity="1.000000" stroke="none" 
	d="
M28.272575,69.050468 
	C24.996580,69.417885 22.192089,69.801979 19.379253,70.109825 
	C18.057062,70.254532 16.448717,70.437439 16.233803,68.623627 
	C16.061630,67.170540 17.469265,66.772385 18.612637,66.548676 
	C32.540016,63.823586 46.103996,65.066261 59.263973,70.408127 
	C60.491581,70.906433 61.946022,71.634033 61.096085,73.320297 
	C60.273529,74.952232 58.761116,74.220879 57.582249,73.728210 
	C48.336460,69.864243 38.667480,68.674629 28.272575,69.050468 
z"/>
<path fill="#F5F6F8" opacity="1.000000" stroke="none" 
	d="
M103.662399,41.919758 
	C107.409828,56.578426 94.809624,68.665131 80.890602,64.534782 
	C73.133057,62.232800 67.843689,54.749100 68.047005,46.828484 
	C68.252724,38.813934 73.762451,31.853754 81.639435,29.657799 
	C89.179718,27.555710 97.266380,30.702084 101.574509,37.495964 
	C102.368614,38.748264 102.884666,40.176888 103.662399,41.919758 
z"/>
<path fill="#FDFDFD" opacity="1.000000" stroke="none" 
	d="
M89.968506,91.985130 
	C89.968460,94.290909 89.862770,96.115150 89.993469,97.922302 
	C90.183182,100.545486 89.930183,102.127998 86.452957,102.107834 
	C83.049286,102.088081 82.762001,100.626831 82.843376,97.940422 
	C82.993294,92.990562 83.016724,88.028458 82.842865,83.080238 
	C82.733116,79.956657 84.638161,80.240807 86.695366,80.166138 
	C88.841972,80.088226 90.172813,80.462151 90.006493,83.076080 
	C89.828575,85.872192 89.967743,88.688477 89.968506,91.985130 
z"/>
<path fill="#E2E5E9" opacity="1.000000" stroke="none" 
	d="
M86.818771,69.787460 
	C87.167160,72.105942 87.574532,74.092018 86.391945,76.565987 
	C84.861275,73.800041 83.912842,71.621529 86.818771,69.787460 
z"/>
<path fill="#4E647B" opacity="1.000000" stroke="none" 
	d="
M72.691277,45.770805 
	C74.653404,48.083073 76.303291,46.305580 77.811592,45.736332 
	C83.579536,43.559452 89.475266,42.173660 95.645172,41.791771 
	C98.172920,41.635315 100.366653,41.473404 100.580666,44.802170 
	C100.824081,48.588188 97.831635,46.790470 96.359085,46.969788 
	C90.109779,47.730774 83.926445,48.657593 78.006691,50.916183 
	C72.223625,53.122627 72.217133,53.105614 71.952583,46.442848 
	C72.179543,45.842640 72.330284,45.672558 72.691277,45.770805 
z"/>
<path fill="#4F667C" opacity="1.000000" stroke="none" 
	d="
M99.519150,53.230515 
	C98.634300,55.887577 96.876213,56.472092 94.731110,56.603565 
	C90.093544,56.887802 85.511284,57.649010 81.131592,59.178635 
	C78.205002,60.200760 76.867165,58.532440 75.106644,56.227493 
	C82.627205,52.646736 90.334129,50.912708 98.461357,50.885723 
	C99.861397,50.881073 100.048836,51.720013 99.519150,53.230515 
z"/>
<path fill="#4F657C" opacity="1.000000" stroke="none" 
	d="
M72.801697,43.217243 
	C76.134605,34.147133 89.885780,30.849230 96.933426,37.669731 
	C89.202026,38.814423 81.775421,39.867386 74.531174,43.052139 
	C73.860359,43.221569 73.552681,43.313747 72.801697,43.217243 
z"/>
<path fill="#7C8C9D" opacity="1.000000" stroke="none" 
	d="
M72.203369,43.292168 
	C72.660759,43.031269 72.963127,43.033978 73.716774,43.083038 
	C73.770836,43.882679 73.373627,44.635971 72.938980,45.714199 
	C72.901535,46.039135 72.465424,46.016987 72.247116,46.014854 
	C72.035316,45.193737 72.041824,44.374756 72.203369,43.292168 
z"/>
</svg>