<svg version="1.1" id="Layer_1" xmlns="http://www.w3.org/2000/svg" xmlns:xlink="http://www.w3.org/1999/xlink" x="0px" y="0px"
	 width="100%" viewBox="0 0 137 120" enable-background="new 0 0 137 120" xml:space="preserve">
<path fill="#FEFEFE" opacity="1.000000" stroke="none" 
	d="
M87.000000,121.000000 
	C58.000000,121.000000 29.500000,121.000000 1.000000,121.000000 
	C1.000000,81.000000 1.000000,41.000000 1.000000,1.000000 
	C46.666668,1.000000 92.333336,1.000000 138.000000,1.000000 
	C138.000000,41.000000 138.000000,81.000000 138.000000,121.000000 
	C121.166664,121.000000 104.333336,121.000000 87.000000,121.000000 
M38.913643,17.253080 
	C32.413712,23.908094 32.083199,28.380020 37.543766,40.425144 
	C27.682981,38.778519 18.200535,37.195068 7.905156,35.475872 
	C30.695604,57.201023 49.194195,79.240082 36.615749,113.448235 
	C55.802795,97.271782 78.195274,36.402630 72.125198,18.522120 
	C66.135994,30.095402 62.698837,34.046173 55.968739,36.859566 
	C58.194309,29.516130 57.784863,22.707460 51.613350,17.661238 
	C48.044128,14.742816 43.759968,14.164134 38.913643,17.253080 
M109.359650,57.830776 
	C115.732956,54.098808 122.106262,50.366844 128.479568,46.634876 
	C126.497162,46.089767 124.776909,46.393696 123.044426,46.589134 
	C115.778221,47.408825 108.523003,48.667686 101.236687,48.894035 
	C87.336510,49.325840 83.779915,46.415592 80.002518,33.055889 
	C79.150337,30.041965 78.302727,27.026747 77.453011,24.012125 
	C73.625145,53.281071 64.370567,80.154114 48.424603,104.715912 
	C54.680374,100.885796 60.582966,96.953804 66.426506,92.935936 
	C71.825165,89.223976 77.168320,89.823036 82.188454,93.401680 
	C86.645622,96.579002 90.910400,100.059097 95.028008,103.670197 
	C98.803299,106.981094 102.268478,110.645599 105.870300,114.154305 
	C104.843224,109.716576 103.000458,105.891098 101.371574,101.976616 
	C99.649033,97.837051 97.985634,93.661667 96.548225,89.416656 
	C91.334976,74.020767 92.566078,70.191933 105.529381,60.569702 
	C106.598709,59.775978 107.663147,58.975662 109.359650,57.830776 
M85.711388,30.170500 
	C85.734337,31.646685 85.542511,33.164261 85.817657,34.591839 
	C86.965874,40.549225 92.499588,44.497730 98.187180,43.557426 
	C105.521614,42.344860 110.449532,35.939835 109.395302,28.989765 
	C108.408157,22.482054 102.965424,18.077539 96.712036,19.130938 
	C90.929459,20.105024 87.290817,23.691830 85.711388,30.170500 
z"/>
<path fill="#465E76" opacity="1.000000" stroke="none" 
	d="
M39.218925,17.031433 
	C43.759968,14.164134 48.044128,14.742816 51.613350,17.661238 
	C57.784863,22.707460 58.194309,29.516130 55.968739,36.859566 
	C62.698837,34.046173 66.135994,30.095402 72.125198,18.522120 
	C78.195274,36.402630 55.802795,97.271782 36.615749,113.448235 
	C49.194195,79.240082 30.695604,57.201023 7.905156,35.475872 
	C18.200535,37.195068 27.682981,38.778519 37.543766,40.425144 
	C32.083199,28.380020 32.413712,23.908094 39.218925,17.031433 
z"/>
<path fill="#E55F30" opacity="1.000000" stroke="none" 
	d="
M109.044754,58.004593 
	C107.663147,58.975662 106.598709,59.775978 105.529381,60.569702 
	C92.566078,70.191933 91.334976,74.020767 96.548225,89.416656 
	C97.985634,93.661667 99.649033,97.837051 101.371574,101.976616 
	C103.000458,105.891098 104.843224,109.716576 105.870300,114.154305 
	C102.268478,110.645599 98.803299,106.981094 95.028008,103.670197 
	C90.910400,100.059097 86.645622,96.579002 82.188454,93.401680 
	C77.168320,89.823036 71.825165,89.223976 66.426506,92.935936 
	C60.582966,96.953804 54.680374,100.885796 48.424603,104.715912 
	C64.370567,80.154114 73.625145,53.281071 77.453011,24.012125 
	C78.302727,27.026747 79.150337,30.041965 80.002518,33.055889 
	C83.779915,46.415592 87.336510,49.325840 101.236687,48.894035 
	C108.523003,48.667686 115.778221,47.408825 123.044426,46.589134 
	C124.776909,46.393696 126.497162,46.089767 128.479568,46.634876 
	C122.106262,50.366844 115.732956,54.098808 109.044754,58.004593 
z"/>
<path fill="#E55F30" opacity="1.000000" stroke="none" 
	d="
M85.774330,29.793777 
	C87.290817,23.691830 90.929459,20.105024 96.712036,19.130938 
	C102.965424,18.077539 108.408157,22.482054 109.395302,28.989765 
	C110.449532,35.939835 105.521614,42.344860 98.187180,43.557426 
	C92.499588,44.497730 86.965874,40.549225 85.817657,34.591839 
	C85.542511,33.164261 85.734337,31.646685 85.774330,29.793777 
z"/>
</svg>